<svg viewBox="0 0 72 72" width="72" height="72" xmlns="http://www.w3.org/2000/svg">
  <defs>
    <linearGradient id="pin" x1="10%" y1="0%" x2="30%" y2="100%">
      <stop offset="0%" stop-color="#A396CB"></stop>
      <stop offset="100%" stop-color="#3E3362"></stop>
    </linearGradient>
    <radialGradient id="shine" cx="38%" cy="30%" r="52%">
      <stop offset="0%" stop-color="rgba(255,255,255,0.22)"></stop>
      <stop offset="100%" stop-color="rgba(255,255,255,0)"></stop>
    </radialGradient>
    <radialGradient id="shadow" cx="50%" cy="90%" r="50%">
      <stop offset="0%" stop-color="rgba(0,0,0,0.3)"></stop>
      <stop offset="100%" stop-color="rgba(0,0,0,0)"></stop>
    </radialGradient>
    <radialGradient id="glow" cx="50%" cy="44%" r="40%">
      <stop offset="0%" stop-color="rgba(120,100,180,0.28)"></stop>
      <stop offset="100%" stop-color="rgba(120,100,180,0)"></stop>
    </radialGradient>
    <clipPath id="pc">
      <path d="M36,11.9 C25.9,11.9 18.8,19 18.8,28 C18.8,37.8 29.4,46.2 36,52.5 C42.6,46.2 53.2,37.8 53.2,28 C53.2,19 46.1,11.9 36,11.9 Z"></path>
    </clipPath>
  </defs>

  
  <ellipse cx="36" cy="30" rx="26" ry="25" fill="url(#glow)"></ellipse>

  
  <path d="M36,11.9 C25.9,11.9 18.8,19 18.8,28 C18.8,37.8 29.4,46.2 36,52.5 C42.6,46.2 53.2,37.8 53.2,28 C53.2,19 46.1,11.9 36,11.9 Z" fill="url(#pin)"></path>

  
  <g clip-path="url(#pc)" opacity="0.42" stroke="#C1BDD2" stroke-width="0.45" fill="none">
    <polygon points="36,16.5 39.9,14.2 43.7,16.5 43.7,21.1 39.9,23.4 36,21.1"></polygon>
    <polygon points="28.1,21.1 32,18.8 35.9,21.1 35.9,25.7 32,28 28.1,25.7"></polygon>
    <polygon points="36,21.1 39.9,18.8 43.7,21.1 43.7,25.7 39.9,28 36,25.7"></polygon>
    <polygon points="43.8,21.1 47.7,18.8 51.5,21.1 51.5,25.7 47.7,28 43.8,25.7"></polygon>
    <polygon points="24.2,25.7 28.1,23.4 32,25.7 32,30.3 28.1,32.6 24.2,30.3"></polygon>
    <polygon points="32,25.7 35.9,23.4 39.8,25.7 39.8,30.3 35.9,32.6 32,30.3"></polygon>
    <polygon points="39.8,25.7 43.7,23.4 47.6,25.7 47.6,30.3 43.7,32.6 39.8,30.3"></polygon>
    <polygon points="28.1,30.3 32,28 35.9,30.3 35.9,34.9 32,37.2 28.1,34.9"></polygon>
    <polygon points="36,30.3 39.9,28 43.7,30.3 43.7,34.9 39.9,37.2 36,34.9"></polygon>
    <polygon points="43.8,30.3 47.7,28 51.5,30.3 51.5,34.9 47.7,37.2 43.8,34.9"></polygon>
    <polygon points="32,34.9 35.9,32.6 39.8,34.9 39.8,39.5 35.9,41.8 32,39.5"></polygon>
    <polygon points="39.8,34.9 43.7,32.6 47.6,34.9 47.6,39.5 43.7,41.8 39.8,39.5"></polygon>
    <polygon points="36,39.5 39.9,37.2 43.7,39.5 43.7,44.1 39.9,46.4 36,44.1"></polygon>
    <polygon points="28.1,39.5 32,37.2 35.9,39.5 35.9,44.1 32,46.4 28.1,44.1"></polygon>
    <polygon points="32,44.1 35.9,41.8 39.8,44.1 39.8,48.7 35.9,51 32,48.7"></polygon>
  </g>

  
  <path d="M36,11.9 C25.9,11.9 18.8,19 18.8,28 C18.8,37.8 29.4,46.2 36,52.5 C42.6,46.2 53.2,37.8 53.2,28 C53.2,19 46.1,11.9 36,11.9 Z" fill="url(#shine)"></path>

  
  <path d="M36,11.9 C25.9,11.9 18.8,19 18.8,28 C18.8,37.8 29.4,46.2 36,52.5 C42.6,46.2 53.2,37.8 53.2,28 C53.2,19 46.1,11.9 36,11.9 Z" fill="url(#shadow)"></path>

  
  <circle cx="36" cy="27.7" r="7.4" fill="rgba(10,7,20,0.62)"></circle>
  <circle cx="36" cy="27.7" r="2.7" fill="rgba(193,189,210,0.18)"></circle>
  <circle cx="36" cy="27.7" r="1.1" fill="rgba(193,189,210,0.12)"></circle>
</svg>