<svg width="48" height="68" viewBox="0 0 48 68" fill="none" xmlns="http://www.w3.org/2000/svg">
<path d="M43.8526 36.7883L35.0417 27.8707C38.668 20.3885 30.876 9.7302 20.2969 12.8147L31.6851 1.30127C47.2092 6.61516 52.5137 24.6946 43.8526 36.7883Z" fill="#322359"/>
<path d="M31.685 1.3013L20.2967 12.8147L11.3359 3.65286C17.5995 -0.286752 24.7321 -0.989166 31.685 1.3013Z" fill="#3C3466"/>
<path d="M1.68555 15.4411L12.4145 26.3438C11.1258 20.8161 14.3925 14.922 20.2964 12.8147L11.3356 3.65283C6.45064 6.92057 3.5736 10.6159 1.68555 15.4411Z" fill="#4F3E77"/>
<path d="M43.8512 36.7882C41.3338 40.8194 38.1271 44.6063 34.5907 48.9429L26.0195 40.2086C29.2262 36.0552 32.4929 32.6042 35.0402 27.8706L43.8512 36.7882Z" fill="#3C3466"/>
<path d="M23.9821 42.8351L26.02 40.2087L34.5912 48.943L21.195 61.1894C17.6286 54.1348 15.0813 51.1419 8.36816 42.5908L16.9094 33.8564L23.9821 42.8351Z" fill="#4F378B"/>
<path d="M21.2328 61.2775L21.1953 61.1897L34.5915 48.9434L34.5207 49.0398C29.5907 55.7584 26.8751 59.4592 23.8626 68.0001C23.2403 65.977 22.3251 63.8345 21.2328 61.2775Z" fill="#351F5D"/>
<path d="M12.4143 26.3438C13.3134 28.9702 14.632 30.6499 16.9097 33.8566L8.36849 42.5909C-1.49132 31.0164 -1.04178 22.7096 1.68537 15.4412L12.4143 26.3438Z" fill="#675599"/>
</svg>
